<svg width="121" height="24" viewBox="0 0 121 24" fill="none" xmlns="http://www.w3.org/2000/svg">
<g clip-path="url(#clip0)">
<path d="M72 15.7309L73.2773 23.462H69.4454L69.2437 22.1847C66.7563 21.983 64.8067 19.9662 64.8067 17.4788H68.437L66.958 9.27713H66.1513L63.6639 23.3948H59.8319L61.1092 15.7309L63.8655 1.88217H69.2437L72 15.7309ZM36.2353 19.9662C35.9664 20.3023 35.4286 20.4368 34.8235 20.4368C34.084 20.4368 33.6134 20.1679 33.4118 19.9662C33.3445 19.899 33.2101 19.6973 33.2101 19.3612V5.84855C33.2101 5.78133 33.2101 5.51242 33.4118 5.31074C33.6134 5.04183 34.1513 4.90738 34.4202 4.84015C34.6218 4.84015 34.958 4.84015 35.1597 4.84015C35.4286 4.90738 35.9664 4.97461 36.2353 5.24351C36.3697 5.37797 36.437 5.57965 36.437 5.78133H40.2689V5.91578V5.7141V5.57965C40.2017 3.56284 38.5882 1.9494 36.6387 1.81494H32.9412C32.605 1.81494 32.2689 1.88217 32 2.01662C31.9328 2.01662 31.8655 2.08385 31.7983 2.08385C31.7311 2.15108 31.5966 2.15108 31.5294 2.2183C30.2521 2.82334 29.3781 4.10066 29.3109 5.57965C29.3109 5.64687 29.3109 5.7141 29.3109 5.84855V19.4284C29.3109 21.5796 30.9916 23.3275 33.0756 23.3948C33.6134 23.462 34.2185 23.462 34.8235 23.462C35.3613 23.462 36.6387 23.3275 36.6387 23.3275C38.6555 23.1931 40.2689 21.6469 40.2689 19.4284H36.437C36.437 19.5628 36.437 19.7645 36.2353 19.9662ZM56.2689 1.81494H52.5042L48.0672 11.8317V5.84855H44.2353V19.4284H48.0672V14.2519L52.6387 23.462H56.4034L51.0924 13.0418L56.2689 1.81494ZM119.328 15.7309L116.571 1.88217H111.193L108.437 15.7309L107.16 23.3948H110.992L113.479 9.27713H114.286L115.765 17.4788H112.134C112.134 19.9662 114.084 21.983 116.571 22.1847L116.773 23.3948H120.605L119.328 15.7309ZM83.8319 1.88217C83.2941 1.81494 82.6891 1.81494 82.084 1.81494C81.5462 1.81494 80.2689 1.9494 80.2689 1.9494C78.2521 2.08385 76.7059 3.63007 76.7059 5.84855H80.5378C80.5378 5.7141 80.5378 5.44519 80.7395 5.24351C81.0084 4.90738 81.479 4.77292 82.1513 4.77292C82.8907 4.77292 83.3613 5.04183 83.563 5.24351C83.6302 5.31074 83.8319 5.51242 83.8319 5.84855V8.87377V9.2099C83.8319 9.9494 83.6302 10.3528 83.2941 10.4872C83.0924 10.5544 82.958 10.6217 82.6218 10.6217H81.6807V13.6469H82.1513C82.6218 13.6469 82.958 13.7141 83.1597 13.7813C83.563 13.9158 83.7647 14.3864 83.7647 15.1931V15.3275V19.4956C83.7647 19.8317 83.6302 19.9662 83.563 20.1007C83.4286 20.3023 82.8907 20.5712 82.1513 20.5712C81.5462 20.5712 81.0084 20.4368 80.7395 20.1007C80.5378 19.899 80.5378 19.6973 80.5378 19.4956H76.7059C76.7059 21.7141 78.3193 23.2603 80.2689 23.3948C80.2689 23.3948 81.5462 23.5292 82.084 23.5292C82.6218 23.5292 83.2941 23.5292 83.8319 23.462C85.916 23.3948 87.5294 21.6469 87.5966 19.4956V15.3275V15.1259C87.5966 13.7141 86.9244 12.7729 85.5798 12.1679C86.9244 11.6301 87.5966 10.6217 87.5966 9.2099V8.87377V5.84855C87.5294 3.63007 85.916 1.9494 83.8319 1.88217ZM103.664 1.81494H99.8992L95.4622 11.8317V5.84855H91.6302V19.4284H95.4622V14.2519L100.034 23.462H103.798L98.5546 13.1091L103.664 1.81494ZM11.6975 23.9998V12.3696H0C0.0672269 18.7561 5.2437 23.9998 11.6975 23.9998Z" fill="#359830"/>
<path d="M24 11.6303C23.9328 5.17647 18.7563 0 12.3025 0V11.6303H24Z" fill="#90B224"/>
<path d="M69.1765 22.1847C69.1765 22.1847 69.2437 22.1847 69.1765 22.1847V22.1847ZM64.6723 17.4788C64.6723 19.9662 66.6218 22.0502 69.1092 22.1847L68.3025 17.4788H64.6723ZM44.1681 1.81494V5.78133H48.0672C48.0672 3.63007 46.3193 1.81494 44.1681 1.81494ZM48.0672 23.3948V19.4284H44.1681C44.1681 21.5796 45.916 23.3948 48.0672 23.3948ZM40.2689 9.81494V5.84855H36.437C36.437 8.06704 38.1176 9.81494 40.2689 9.81494ZM36.437 15.3948V19.3612H40.2689C40.2689 17.2099 38.5882 15.3948 36.437 15.3948ZM76.7059 19.3612H80.5378V15.3948C78.3865 15.3948 76.7059 17.2099 76.7059 19.3612ZM116.504 22.1847C116.504 22.1847 116.571 22.1847 116.504 22.1847V22.1847ZM112 17.4788C112 19.9662 113.95 22.0502 116.437 22.1847L115.63 17.4788H112ZM91.563 1.81494V5.78133H95.4622C95.4622 3.63007 93.7143 1.81494 91.563 1.81494ZM95.3949 23.3948V19.4284H91.4958C91.563 21.5796 93.3109 23.3948 95.3949 23.3948ZM80.4706 9.81494V5.84855H76.6386C76.7059 8.06704 78.3865 9.81494 80.4706 9.81494ZM12.3025 23.9998H24V12.3696H23.9328C17.479 12.3696 12.3025 17.546 12.3025 23.9998Z" fill="#007858"/>
<path d="M11.6975 0H0V11.6303H0.0672269C6.52101 11.6303 11.6975 6.38655 11.6975 0Z" fill="#FFD300"/>
</g>
<defs>
<clipPath id="clip0">
<rect width="120.605" height="24" fill="white"/>
</clipPath>
</defs>
</svg>
